<?xml version="1.0" encoding="UTF-8"?>
<svg fill="#FFFFFF" width="100pt" height="100pt" version="1.1" viewBox="0 0 100 100" xmlns="http://www.w3.org/2000/svg">
 <g>
  <path d="m26.457 98.957h-9.7891c-8.75 0-15.625-7.082-15.625-15.625v-66.664c0-8.75 7.082-15.625 15.625-15.625h9.793c2.293 0 4.168 1.875 4.168 4.168v89.793c-0.003906 2.0781-1.8789 3.9531-4.1719 3.9531zm-9.7891-89.789c-4.168 0-7.5 3.332-7.5 7.5v66.664c0 4.168 3.332 7.5 7.5 7.5h5.832v-81.664z"/>
  <path d="m94.793 98.957h-68.336c-2.293 0-4.168-1.875-4.168-4.168l0.003907-89.582c0-2.293 1.875-4.168 4.168-4.168h68.332c2.293 0 4.168 1.875 4.168 4.168v89.793c-0.003907 2.082-1.8789 3.957-4.168 3.957zm-64.168-8.125h60.207v-81.664h-60.207z"/>
  <path d="m60.625 71.875c-2.293 0-4.168-1.875-4.168-4.168v-35.625c0-2.293 1.875-4.168 4.168-4.168s4.168 1.875 4.168 4.168v35.625c0 2.293-1.875 4.168-4.168 4.168z"/>
  <path d="m72.082 46.457h-22.918c-2.293 0-4.168-1.875-4.168-4.168 0-2.293 1.875-4.168 4.168-4.168h22.918c2.293 0 4.168 1.875 4.168 4.168 0 2.293-1.875 4.168-4.168 4.168z"/>
 </g>
</svg>
